# xmcd
#
# Track frame offsets:
#	150
#	4796
#	15578
#	34992
#	45741
#	59287
#	68549
#	79365
#	91117
#	107445
#	120457
#	130606
#	139963
#	151689
#	158608
#	172112
#	185321
#
# Disc length: 2552 seconds
#
# Revision: 2
# Processed by: cddbd v1.4PL0 Copyright (c) Steve Scherf et al.
# Submitted via: Gronk 1.4
#
DISCID=cb09f611
DTITLE=Buck Owens - In Japan!
DYEAR=1900
DGENRE=country
TTITLE0=Opening Remarks - Tetsu Otsuka (Ted)
TTITLE1=Adios, Farewell, Goodbye, Good Luck, So Long
TTITLE2=I Was Born To Be In Love With You
TTITLE3=Open Up Your Heart
TTITLE4=Second Fiddle
TTITLE5=Fiddle Polka
TTITLE6=Fishin' On The Mississippi
TTITLE7=The Way That I Love You
TTITLE8=Buck Introduces His Buckaroos
TTITLE9=Tokyo Polka
TTITLE10=Where Does The Good Times Go
TTITLE11=Steel Guitar Polka
TTITLE12=Don't Wipe The Tears That You Cry For Him On My Good White Shirt
TTITLE13=Drum So-Low
TTITLE14=Roll Out The Red Carpet
TTITLE15=We Were Made For Each Other
TTITLE16=Closing Remarks
EXTD=
EXTT0=
EXTT1=
EXTT2=
EXTT3=
EXTT4=
EXTT5=
EXTT6=
EXTT7=
EXTT8=
EXTT9=
EXTT10=
EXTT11=
EXTT12=
EXTT13=
EXTT14=
EXTT15=
EXTT16=
PLAYORDER=
